<svg xmlns="http://www.w3.org/2000/svg" viewBox="0 0 64 64" role="img" aria-label="PPT 智能生成">
  <defs>
    <linearGradient id="bg" x1="10" y1="8" x2="54" y2="58" gradientUnits="userSpaceOnUse">
      <stop stop-color="#38BDF8"/>
      <stop offset="1" stop-color="#0284C7"/>
    </linearGradient>
  </defs>
  <rect x="3" y="3" width="58" height="58" rx="15" fill="url(#bg)"/>
  <path d="M13 23a5 5 0 0 1 5-5h25a5 5 0 0 1 5 5v25H18a5 5 0 0 1-5-5V23Z" fill="#BAE6FD" opacity=".72"/>
  <rect x="17" y="14" width="34" height="32" rx="5" fill="#FFF"/>
  <rect x="22" y="21" width="17" height="4" rx="2" fill="#0284C7"/>
  <rect x="22" y="29" width="24" height="3" rx="1.5" fill="#7DD3FC"/>
  <rect x="22" y="35" width="18" height="3" rx="1.5" fill="#BAE6FD"/>
  <path d="M48 8.5 49.6 13l4.4 1.6-4.4 1.6L48 20.5l-1.6-4.3-4.4-1.6 4.4-1.6L48 8.5Z" fill="#FDE68A"/>
</svg>
